# xmcd
#
# Track frame offsets:
#	150
#	16770
#	32627
#	47825
#	61047
#	76170
#	94785
#	108337
#	123270
#	139915
#
# Disc length: 2130 seconds
#
# Revision: 0
# Processed by: cddbd v1.5PL3 Copyright (c) Steve Scherf et al.
# Submitted via: dBpowerAMP V4.0
#
DISCID=7308500a
DTITLE=chalino sanchez - chalino sanchez
DYEAR=1900
DGENRE=Latin
TTITLE0=yo
TTITLE1=yo
TTITLE2=hope
TTITLE3=Track0love4
TTITLE4=weed
TTITLE5=tkip
TTITLE6=poler
TTITLE7=sade
TTITLE8=none
TTITLE9=tripo
EXTD=
EXTT0=
EXTT1=
EXTT2=
EXTT3=
EXTT4=
EXTT5=
EXTT6=
EXTT7=
EXTT8=
EXTT9=
PLAYORDER=
